<?xml version="1.0" encoding="utf-8"?>
<!-- Generator: Adobe Illustrator 17.0.0, SVG Export Plug-In . SVG Version: 6.00 Build 0)  -->
<!DOCTYPE svg PUBLIC "-//W3C//DTD SVG 1.1//EN" "http://www.w3.org/Graphics/SVG/1.1/DTD/svg11.dtd">
<svg version="1.1" id="Calque_1" xmlns="http://www.w3.org/2000/svg" xmlns:xlink="http://www.w3.org/1999/xlink" x="0px" y="0px"
	 width="294.945px" height="200.344px" viewBox="0 0 294.945 200.344" enable-background="new 0 0 294.945 200.344"
	 xml:space="preserve">
<g>
	<g>
		<rect x="0" y="0" fill="#FFFFFF" width="294.945" height="200.344"/>
		<path fill="#FFFFFF" d="M147.473,102.031"/>
	</g>
	<g>
		<rect x="5.672" y="5.492" fill="#164194" width="283.602" height="189.07"/>
		<path fill="#164194" d="M147.473,100.031"/>
	</g>
	<g>
		<polygon fill="#FFED00" points="141.43,46.688 147.414,42.32 153.398,46.688 151.121,39.625 157.199,35.258 149.707,35.258 
			147.414,28.109 145.121,35.266 137.633,35.258 143.707,39.625 		"/>
		<polygon fill="#FFED00" points="110.461,55.008 116.445,50.641 122.426,55.008 120.152,47.945 126.226,43.578 118.734,43.578 
			116.441,36.422 114.148,43.586 106.66,43.578 112.734,47.945 		"/>
		<polygon fill="#FFED00" points="93.785,59.133 91.492,66.297 84.004,66.289 90.078,70.656 87.801,77.719 93.785,73.352 
			99.77,77.719 97.492,70.656 103.566,66.289 96.078,66.289 		"/>
		<polygon fill="#FFED00" points="85.473,104.281 91.453,108.648 89.18,101.586 95.254,97.219 87.766,97.219 85.473,90.062 
			83.18,97.234 75.688,97.219 81.766,101.586 79.488,108.648 		"/>
		<polygon fill="#FFED00" points="96.078,128.242 93.785,121.086 91.492,128.25 84.004,128.242 90.078,132.609 87.801,139.672 
			93.785,135.297 99.77,139.672 97.492,132.609 103.566,128.242 		"/>
		<polygon fill="#FFED00" points="118.781,150.945 116.488,143.797 114.199,150.953 106.707,150.945 112.781,155.312 
			110.508,162.375 116.492,158.008 122.473,162.375 120.199,155.312 126.273,150.945 		"/>
		<polygon fill="#FFED00" points="149.711,159.172 147.418,152.016 145.129,159.18 137.637,159.172 143.711,163.539 
			141.438,170.602 147.422,166.234 153.402,170.602 151.125,163.539 157.203,159.172 		"/>
		<polygon fill="#FFED00" points="180.641,150.945 178.352,143.797 176.055,150.953 168.57,150.945 174.641,155.312 
			172.367,162.375 178.352,158.008 184.336,162.375 182.055,155.312 188.133,150.945 		"/>
		<polygon fill="#FFED00" points="203.352,128.242 201.055,121.086 198.758,128.25 191.273,128.242 197.352,132.609 195.07,139.672 
			201.055,135.297 207.039,139.672 204.758,132.609 210.836,128.242 		"/>
		<polygon fill="#FFED00" points="219.062,97.133 211.57,97.133 209.273,89.977 206.984,97.141 199.492,97.133 205.57,101.5 
			203.297,108.562 209.273,104.188 215.258,108.562 212.984,101.5 		"/>
		<polygon fill="#FFED00" points="195.07,77.625 201.055,73.258 207.039,77.625 204.758,70.562 210.836,66.203 203.352,66.203 
			201.055,59.047 198.758,66.211 191.273,66.203 197.352,70.562 		"/>
		<polygon fill="#FFED00" points="178.438,36.43 176.148,43.594 168.656,43.578 174.727,47.953 172.453,55.016 178.445,50.641 
			184.422,55.016 182.148,47.953 188.227,43.578 180.727,43.578 		"/>
	</g>
</g>
</svg>
