<?xml version="1.0"?>
<svg xmlns="http://www.w3.org/2000/svg" xmlns:xlink="http://www.w3.org/1999/xlink" version="1.1" id="Layer_1" x="0px" y="0px" viewBox="0 0 512 512" style="enable-background:new 0 0 512 512;" xml:space="preserve" width="512px" height="512px" class=""><g><g transform="translate(1 1)">
	<g>
		<g>
			<path d="M80.92,138.947l59.733,23.893c1.707,0.853,2.56,0.853,3.413,0.853c3.413,0,6.827-2.56,7.68-5.973     c1.707-4.267-0.853-9.387-5.12-11.093l-59.733-23.893c-4.267-1.707-9.387,0.853-11.093,5.12S76.653,137.24,80.92,138.947z" data-original="#000000" class="active-path" data-old_color="#000000" fill="#FFFFFF"/>
			<path d="M76.653,174.787c-1.707,4.267,0.853,9.387,5.12,11.093l128,46.933c0.853,0.853,1.707,0.853,2.56,0.853     c3.413,0,6.827-1.707,8.533-5.973s-0.853-9.387-5.12-11.093l-128-46.933C83.48,167.96,78.36,170.52,76.653,174.787z" data-original="#000000" class="active-path" data-old_color="#000000" fill="#FFFFFF"/>
			<path d="M215.747,267.8l-128-46.933c-4.267-1.707-9.387,0.853-11.093,5.12c-1.707,4.267,0.853,9.387,5.12,11.093l128,46.933     c0.853,0.853,1.707,0.853,2.56,0.853c3.413,0,6.827-1.707,8.533-5.973S220.013,269.507,215.747,267.8z" data-original="#000000" class="active-path" data-old_color="#000000" fill="#FFFFFF"/>
			<path d="M215.747,319l-128-46.933c-4.267-1.707-9.387,0.853-11.093,5.12s0.853,9.387,5.12,11.093l128,46.933     c0.853,0.853,1.707,0.853,2.56,0.853c3.413,0,6.827-1.707,8.533-5.973S220.013,320.707,215.747,319z" data-original="#000000" class="active-path" data-old_color="#000000" fill="#FFFFFF"/>
			<path d="M215.747,370.2l-128-46.933c-4.267-1.707-9.387,0.853-11.093,5.12c-1.707,4.267,0.853,9.387,5.12,11.093l128,46.933     c0.853,0.853,1.707,0.853,2.56,0.853c3.413,0,6.827-1.707,8.533-5.973S220.013,371.907,215.747,370.2z" data-original="#000000" class="active-path" data-old_color="#000000" fill="#FFFFFF"/>
			<path d="M498.2,84.333h-21.333V24.6c0-2.56-1.707-5.12-3.413-6.827c-2.56-1.707-5.12-1.707-8.533-1.707L254.573,83.378     L44.227,16.067c-2.56,0-5.12,0-7.68,1.707c-1.707,1.707-3.413,4.267-3.413,6.827v59.733H11.8c-6.827,0-12.8,5.973-12.8,12.8v384     c0,6.827,5.973,12.8,12.8,12.8h486.4c6.827,0,12.8-5.973,12.8-11.947V97.133C511,90.307,505.027,84.333,498.2,84.333z      M459.8,92.867v317.44l-196.267,63.147V98.84L459.8,36.547V92.867z M50.2,36.547l195.413,62.023v375.255L50.2,411.16V92.867     V36.547z M16.067,476.867V101.4h17.067v315.733c0,3.413,2.56,6.827,5.973,8.533l161.28,51.2H16.067z M493.933,476.867H310.164     l160.729-51.2c3.413-1.707,5.973-5.12,5.973-8.533V101.4h17.067V476.867z" data-original="#000000" class="active-path" data-old_color="#000000" fill="#FFFFFF"/>
			<path d="M297.667,182.467c1.707,0,2.56,0,3.413-0.853l128-46.933c4.267-1.707,6.827-6.827,5.12-11.093s-6.827-6.827-11.093-5.12     l-128,46.933c-4.267,1.707-6.827,6.827-5.12,11.093C290.84,179.907,294.253,182.467,297.667,182.467z" data-original="#000000" class="active-path" data-old_color="#000000" fill="#FFFFFF"/>
			<path d="M297.667,233.667c1.707,0,2.56,0,3.413-0.853l128-46.933c4.267-1.707,6.827-6.827,5.12-11.093s-6.827-6.827-11.093-5.12     l-128,46.933c-4.267,1.707-6.827,6.827-5.12,11.093C290.84,231.107,294.253,233.667,297.667,233.667z" data-original="#000000" class="active-path" data-old_color="#000000" fill="#FFFFFF"/>
			<path d="M297.667,284.867c1.707,0,2.56,0,3.413-0.853l128-46.933c4.267-1.707,6.827-6.827,5.12-11.093     c-1.707-4.267-6.827-6.827-11.093-5.12l-128,46.933c-4.267,1.707-6.827,6.827-5.12,11.093     C290.84,283.16,294.253,284.867,297.667,284.867z" data-original="#000000" class="active-path" data-old_color="#000000" fill="#FFFFFF"/>
			<path d="M297.667,336.067c1.707,0,2.56,0,3.413-0.853l128-46.933c4.267-1.707,6.827-6.827,5.12-11.093s-6.827-6.827-11.093-5.12     l-128,46.933c-4.267,1.707-6.827,6.827-5.12,11.093C290.84,334.36,294.253,336.067,297.667,336.067z" data-original="#000000" class="active-path" data-old_color="#000000" fill="#FFFFFF"/>
			<path d="M297.667,387.267c1.707,0,2.56,0,3.413-0.853l128-46.933c4.267-1.707,6.827-6.827,5.12-11.093s-6.827-6.827-11.093-5.12     l-128,46.933c-4.267,1.707-6.827,6.827-5.12,11.093C290.84,385.56,294.253,387.267,297.667,387.267z" data-original="#000000" class="active-path" data-old_color="#000000" fill="#FFFFFF"/>
		</g>
	</g>
</g></g> </svg>
