<?xml version="1.0" encoding="utf-8"?>
<!-- Generator: Adobe Illustrator 17.0.0, SVG Export Plug-In . SVG Version: 6.00 Build 0)  -->
<!DOCTYPE svg PUBLIC "-//W3C//DTD SVG 1.1//EN" "http://www.w3.org/Graphics/SVG/1.1/DTD/svg11.dtd">
<svg version="1.1" id="Calque_1" xmlns="http://www.w3.org/2000/svg" xmlns:xlink="http://www.w3.org/1999/xlink" x="0px" y="0px"
	 width="289.396px" height="59.26px" viewBox="0 0 289.396 59.26" enable-background="new 0 0 289.396 59.26" xml:space="preserve">
<g>
	<path fill="#E34549" d="M41.827,30.181c0.294-0.584,0.812-1.136,0.981-1.78c1.884-7.178-5.075-15.224-15.544-17.971
		c-8.603-2.257-16.732-0.258-20.461,4.52C7.792,15.444,40.541,30.144,41.827,30.181z"/>
	<g>
		<defs>
			<path id="SVGID_1_" d="M27.37,10.218c-8.603-2.257-16.845-0.2-20.573,4.578c0.015,0.008-0.015-0.008,0,0
				c-0.009,0.003-0.018,0.005-0.026,0.007c-0.237,1.239-0.369,2.523-0.369,3.848c0,5.085,1.832,9.543,4.842,12.925l0.333,0.359
				c0.307,0.32,0.615,0.64,0.935,0.935L26,46.359l14.77-14.782c0,0,0.708-0.865,1.132-1.466c0.064-0.098-0.123-0.106-0.014-0.102
				c0.294-0.584,0.858-1.175,1.027-1.818C44.798,21.011,37.838,12.965,27.37,10.218z"/>
		</defs>
		<clipPath id="SVGID_2_">
			<use xlink:href="#SVGID_1_"  overflow="visible"/>
		</clipPath>
		<g clip-path="url(#SVGID_2_)">
			
				<image overflow="visible" opacity="0.7" width="230" height="215" xlink:href="726689B920D25E6.png"  transform="matrix(0.24 0 0 0.24 0 7.6601)">
			</image>
			<g>
				<path fill="#0FA9BA" d="M25.11,18.972c-7.485-5.685-14.128-5.426-18.339-4.168c-0.237,1.239-0.369,2.523-0.369,3.848
					c0,5.085,1.832,9.543,4.842,12.925l0,0l0.333,0.359c0.307,0.32,0.615,0.64,0.935,0.935L26,46.359l14.77-14.782l0,0
					c0.738-0.83,1.16-1.426,1.621-2.258C36.005,28.496,34.384,26.016,25.11,18.972z"/>
			</g>
		</g>
	</g>
	<path fill="#0FA9BA" d="M45.092,19.661c0.072-5.294-1.89-10.234-5.525-13.912c-3.592-3.635-8.44-5.676-13.652-5.747
		c-9.231-0.118-17.1,6.03-19.161,14.89l2.876,0.609c1.746-7.503,8.442-12.666,16.245-12.563c4.436,0.06,8.557,1.792,11.604,4.875
		c3.078,3.114,4.739,7.308,4.677,11.808c-0.043,3.182-1.1,6.523-2.9,9.165l1.461,2.822c0,0,0.758-0.868,1.386-1.786
		c0.05-0.073,0.069-0.107,0.13-0.213C44.053,26.623,45.044,23.14,45.092,19.661z"/>
	<g>
		<path fill="#0FA9BA" d="M97.198,46.904c-1.005,0-2.011-0.53-2.011-1.959V29.755l-12.544,0v15.191c0,1.323-1.006,1.959-2.011,1.959
			c-1.005,0-2.011-0.635-2.011-1.959V11.759c0-1.323,1.006-2.011,2.011-2.011c1.005,0,2.011,0.688,2.011,2.011v13.973l12.544,0
			V11.759c0-1.323,1.006-2.011,2.011-2.011c1.006,0,2.011,0.688,2.011,2.011v33.186C99.21,46.374,98.204,46.904,97.198,46.904z"/>
		<path fill="#0FA9BA" d="M149.937,13.686l-5.822,0v30.857c0,1.323-1.006,1.959-2.011,1.959c-1.006,0-2.011-0.635-2.011-1.959
			V13.686l-5.822,0c-1.324,0-2.011-1.006-2.011-2.011s0.688-2.011,2.011-2.011l15.667,0c1.323,0,2.011,1.006,2.011,2.011
			S151.26,13.686,149.937,13.686z"/>
		<path fill="#0FA9BA" d="M187.514,46.501c-1.006,0-2.011-0.635-2.011-1.959V18.661l-6.987,16.037
			c-0.423,1.006-1.323,1.376-2.223,1.376c-1.005,0-1.853-0.476-2.276-1.376l-7.198-16.037v25.882c0,1.323-1.006,1.959-2.011,1.959
			c-1.005,0-2.011-0.635-2.011-1.959V11.674c0-1.429,0.53-2.329,2.382-2.329l0.159,0c1.429,0,2.011,0.741,2.381,1.535l8.469,18.948
			l8.415-18.948c0.371-0.794,0.953-1.535,2.435-1.535h0.159c1.853,0,2.328,0.9,2.328,2.329v32.868
			C189.525,45.866,188.52,46.501,187.514,46.501z"/>
		<path fill="#0FA9BA" d="M224.774,46.501c-0.793,0-1.587-0.371-1.905-1.376l-2.329-7.622l-13.073,0l-2.382,7.622
			c-0.318,1.006-1.058,1.376-1.853,1.376c-1.217,0-2.064-0.847-2.064-1.906c0-0.159,0.052-0.37,0.106-0.635l10.321-33.133
			c0.318-1.006,1.323-1.482,2.382-1.482c1.111,0,2.117,0.476,2.435,1.482l10.321,33.133c0.052,0.264,0.106,0.476,0.106,0.635
			C226.838,45.654,225.991,46.501,224.774,46.501z M213.977,16.544l-5.24,16.937l10.532,0L213.977,16.544z"/>
		<path fill="#0FA9BA" d="M249.014,29.67l-6.51,0v14.873c0,1.323-1.006,1.959-2.011,1.959c-1.005,0-2.011-0.635-2.011-1.959V11.674
			c0-1.058,0.953-2.011,2.011-2.011l8.522,0c5.558,0,10.056,4.393,10.056,9.951S254.572,29.67,249.014,29.67z M249.014,13.686
			l-6.51,0v11.962l6.51,0c3.334,0,6.033-2.699,6.033-6.034C255.047,16.385,252.349,13.686,249.014,13.686z"/>
		<path fill="#0FA9BA" d="M279.287,46.501h-0.476c-5.452,0-10.48-3.335-10.48-9.739c0-1.323,1.005-1.959,2.011-1.959
			c1.005,0,2.011,0.582,2.011,2.011c0,3.758,3.07,5.716,6.51,5.716h0.53c4.181,0,5.981-2.064,5.981-5.875
			c0-4.34-3.07-5.557-6.298-7.357c-5.081-2.858-10.215-4.128-10.215-10.903c0-5.134,4.393-9.051,9.951-9.051h0.529
			c5.081,0,9.633,3.599,9.633,8.469c0,1.323-0.9,1.959-1.906,1.959c-1.005,0-1.958-0.635-2.117-1.906
			c-0.264-2.593-2.488-4.499-5.716-4.499h-0.476c-4.393,0-5.822,3.176-5.822,5.028c0,3.863,3.282,5.028,6.14,6.563
			c5.293,2.858,10.321,4.552,10.321,11.75C289.396,42.796,285.691,46.501,279.287,46.501z"/>
		<g>
			<path fill="#0FA9BA" d="M115.905,27.473c-4.603,0-9.263-3.266-9.263-9.508c0-6.27,4.665-9.551,9.273-9.551
				c4.619,0,9.294,3.281,9.294,9.551C125.21,24.207,120.529,27.473,115.905,27.473z M115.916,12.098
				c-2.782,0-5.589,1.814-5.589,5.867c0,4.023,2.802,5.823,5.578,5.823c2.797,0,5.621-1.801,5.621-5.823
				C121.526,13.913,118.708,12.098,115.916,12.098z"/>
		</g>
	</g>
</g>
</svg>
