<?xml version="1.0" encoding="utf-8"?>
<!-- Generator: Adobe Illustrator 17.0.0, SVG Export Plug-In . SVG Version: 6.00 Build 0)  -->
<!DOCTYPE svg PUBLIC "-//W3C//DTD SVG 1.1//EN" "http://www.w3.org/Graphics/SVG/1.1/DTD/svg11.dtd">
<svg version="1.1" id="Calque_1" xmlns="http://www.w3.org/2000/svg" xmlns:xlink="http://www.w3.org/1999/xlink" x="0px" y="0px"
	 width="38.173px" height="34.145px" viewBox="0 0 38.173 34.145" enable-background="new 0 0 38.173 34.145" xml:space="preserve">
<g>
	<g>
		<path fill="#E34549" d="M35.768,22.232c0.217-0.43,0.598-0.837,0.723-1.311c1.387-5.286-3.737-11.211-11.446-13.234
			c-6.335-1.662-12.322-0.19-15.067,3.328C10.705,11.379,34.821,22.205,35.768,22.232z"/>
		<g>
			<defs>
				<path id="SVGID_1_" d="M25.122,7.531c-6.335-1.662-12.405-0.147-15.15,3.371c0.011,0.006-0.011-0.006,0,0
					c-0.006,0.002-0.013,0.003-0.019,0.005C9.778,11.82,9.68,12.765,9.68,13.741c0,3.745,1.349,7.028,3.566,9.518l0.245,0.264
					c0.226,0.236,0.453,0.472,0.689,0.689l9.933,9.933l10.876-10.886c0,0,0.521-0.637,0.833-1.08c0.047-0.072-0.09-0.078-0.01-0.075
					c0.217-0.43,0.632-0.865,0.756-1.339C37.955,15.479,32.831,9.554,25.122,7.531z"/>
			</defs>
			<clipPath id="SVGID_2_">
				<use xlink:href="#SVGID_1_"  overflow="visible"/>
			</clipPath>
			<g clip-path="url(#SVGID_2_)">
				
					<image overflow="visible" opacity="0.7" width="182" height="170" xlink:href="48EB9E502168D318.png"  transform="matrix(0.24 0 0 0.24 4.0111 4.6917)">
				</image>
				<g>
					<path fill="#0FA9BA" d="M23.457,13.977c-5.512-4.186-10.404-3.996-13.505-3.07C9.778,11.82,9.68,12.765,9.68,13.741
						c0,3.745,1.349,7.028,3.566,9.518l0,0l0.245,0.264c0.226,0.236,0.453,0.472,0.689,0.689l9.933,9.933l10.876-10.886l0,0
						c0.543-0.611,0.854-1.05,1.194-1.663C31.48,20.99,30.287,19.164,23.457,13.977z"/>
				</g>
			</g>
		</g>
		<path fill="#0FA9BA" d="M38.172,14.485c0.053-3.898-1.392-7.536-4.069-10.245c-2.645-2.677-6.215-4.18-10.053-4.232
			c-6.798-0.087-12.592,4.44-14.11,10.965l2.118,0.448c1.286-5.525,6.216-9.327,11.963-9.251c3.267,0.044,6.301,1.319,8.545,3.59
			c2.266,2.293,3.489,5.381,3.444,8.696c-0.032,2.343-0.81,4.803-2.136,6.749l1.076,2.078c0,0,0.559-0.639,1.02-1.315
			c0.037-0.054,0.051-0.079,0.096-0.157C37.407,19.611,38.137,17.046,38.172,14.485z"/>
	</g>
	<g>
		<path fill="#0FA9BA" d="M4.35,8.951C2.189,8.951,0,7.417,0,4.486C0,1.541,2.191,0,4.355,0C6.524,0,8.72,1.541,8.72,4.486
			C8.72,7.417,6.522,8.951,4.35,8.951z M4.355,1.73c-1.307,0-2.625,0.852-2.625,2.755c0,1.889,1.316,2.735,2.62,2.735
			c1.314,0,2.64-0.846,2.64-2.735C6.99,2.583,5.667,1.73,4.355,1.73z"/>
	</g>
</g>
</svg>
