<svg xmlns="http://www.w3.org/2000/svg" viewBox="0 0 145 157" xmlns:xlink="http://www.w3.org/1999/xlink" height="157" width="145">
    <defs/>
    <g transform="translate(-154,-139)">
        <path d="M0,66.2C0,53.1,7.9,41.8,19.2,37C19.5,26.4,28,18,38.5,18C41.1,18,43.5,18.5,45.8,19.5C52,7.9,64.2,0,78.1,0C98.5,0,115,16.8,115,37.4C115,37.9,115,38.3,115,38.7C130.7,39.3,143.2,52.3,143.2,68.3C143.2,84.7,130.1,98,114,98C99.8,98,47,98,31.3,98C14,98,0,83.8,0,66.2zM36,92.6C49.8,92.6,96.3,92.6,108.8,92.6C123.1,92.6,137.2,83,137.2,68.6C137.2,54.5,127.8,44.1,109.9,43.2C109.9,42.8,109.9,42.5,109.9,42.1C109.8,21.2,95.9,5.9,77.9,5.9C65.6,5.9,53.3,14.1,49,25.9C47.1,25.1,42.4,23.6,40.1,23.6C30.9,23.6,24,30.7,24.9,41.1C14.6,44.1,5.9,54.7,5.9,66.3C5.9,81.7,20.7,92.6,36,92.6z" stroke-width="0.333333" id="shape1" transform="translate(155,140)" fill="#000000" stroke="#000000"/>
        <path d="M0,23.6L23.6,0L23.6,14.2L84.6,14.2C89.8,14.2,94,18.4,94,23.6C94,28.8,89.8,33.1,84.6,33.1L23.6,33.1L23.6,47.2L0,23.6z" stroke-width="3.33333" id="shape2" transform="matrix(0,-1,1,0,203,281)" fill="#000000" stroke="#ffffff"/>
        <path stroke-width="4" d="M0,0L62,0" id="shape3" transform="translate(195,285)" fill="none" stroke="#000000"/>
    </g>
</svg>
