<?xml version="1.0" encoding="UTF-8" standalone="no"?>
<!DOCTYPE svg PUBLIC "-//W3C//DTD SVG 1.1//EN"
 "http://www.w3.org/Graphics/SVG/1.1/DTD/svg11.dtd">
<!-- Generated by graphviz version 2.40.1 (20161225.0304)
 -->
<!-- Title: dependencies Pages: 1 -->
<svg width="6222pt" height="284pt"
 viewBox="0.00 0.00 6222.00 284.00" xmlns="http://www.w3.org/2000/svg" xmlns:xlink="http://www.w3.org/1999/xlink">
<g id="graph0" class="graph" transform="scale(1 1) rotate(0) translate(4 280)">
<title>dependencies</title>
<polygon fill="#ffffff" stroke="transparent" points="-4,4 -4,-280 6218,-280 6218,4 -4,4"/>
<text text-anchor="start" x="3086.0091" y="-42.4" font-family="sans-serif" font-weight="bold" font-size="14.00" fill="#000000">Legend</text>
<polygon fill="#ffffb3" stroke="transparent" points="2873,-10 2873,-30 2893,-30 2893,-10 2873,-10"/>
<text text-anchor="start" x="2896.629" y="-15.4" font-family="sans-serif" font-size="14.00" fill="#000000"> &#160;Declarations</text>
<polygon fill="#8dd3c7" stroke="transparent" points="2986,-10 2986,-30 3006,-30 3006,-10 2986,-10"/>
<text text-anchor="start" x="3009.7251" y="-15.4" font-family="sans-serif" font-size="14.00" fill="#000000"> &#160;Module</text>
<polygon fill="#80b1d3" stroke="transparent" points="3072,-10 3072,-30 3092,-30 3092,-10 3072,-10"/>
<text text-anchor="start" x="3095.7812" y="-15.4" font-family="sans-serif" font-size="14.00" fill="#000000"> &#160;Bootstrap</text>
<polygon fill="#fdb462" stroke="transparent" points="3169,-10 3169,-30 3189,-30 3189,-10 3169,-10"/>
<text text-anchor="start" x="3192.6732" y="-15.4" font-family="sans-serif" font-size="14.00" fill="#000000"> &#160;Providers</text>
<polygon fill="#fb8072" stroke="transparent" points="3265,-10 3265,-30 3285,-30 3285,-10 3265,-10"/>
<text text-anchor="start" x="3288.7258" y="-15.4" font-family="sans-serif" font-size="14.00" fill="#000000"> &#160;Exports</text>
<g id="clust1" class="cluster">
<title>cluster_AppModule</title>
<polygon fill="none" stroke="#000000" stroke-dasharray="1,5" points="8,-70 8,-268 6206,-268 6206,-70 8,-70"/>
</g>
<g id="clust2" class="cluster">
<title>cluster_AppModule_declarations</title>
<polygon fill="none" stroke="#000000" points="3664,-78 3664,-130 6198,-130 6198,-78 3664,-78"/>
</g>
<g id="clust19" class="cluster">
<title>cluster_AppModule_imports</title>
<polygon fill="none" stroke="#000000" points="3512,-78 3512,-130 3656,-130 3656,-78 3512,-78"/>
</g>
<g id="clust21" class="cluster">
<title>cluster_AppModule_bootstrap</title>
<polygon fill="none" stroke="#000000" points="3334,-208 3334,-260 3458,-260 3458,-208 3334,-208"/>
</g>
<g id="clust22" class="cluster">
<title>cluster_AppModule_providers</title>
<polygon fill="none" stroke="#000000" points="16,-78 16,-130 3504,-130 3504,-78 16,-78"/>
</g>
<!-- AppComponent -->
<g id="node1" class="node">
<title>AppComponent</title>
<polygon fill="#ffffb3" stroke="#000000" points="6189.9399,-122 6084.0601,-122 6084.0601,-86 6189.9399,-86 6189.9399,-122"/>
<text text-anchor="middle" x="6137" y="-99.8" font-family="Times,serif" font-size="14.00" fill="#000000">AppComponent</text>
</g>
<!-- AppModule -->
<g id="node17" class="node">
<title>AppModule</title>
<polygon fill="#8dd3c7" stroke="#000000" points="3437.6571,-187 3434.6571,-191 3413.6571,-191 3410.6571,-187 3354.3429,-187 3354.3429,-151 3437.6571,-151 3437.6571,-187"/>
<text text-anchor="middle" x="3396" y="-164.8" font-family="Times,serif" font-size="14.00" fill="#000000">AppModule</text>
</g>
<!-- AppComponent&#45;&gt;AppModule -->
<g id="edge1" class="edge">
<title>AppComponent&#45;&gt;AppModule</title>
<path fill="none" stroke="#000000" d="M6137,-122.1985C6137,-146.3563 6137,-186 6137,-186 6137,-186 3447.6856,-186 3447.6856,-186"/>
<polygon fill="#000000" stroke="#000000" points="3447.6856,-182.5001 3437.6856,-186 3447.6856,-189.5001 3447.6856,-182.5001"/>
</g>
<!-- SearchBarComponent -->
<g id="node2" class="node">
<title>SearchBarComponent</title>
<polygon fill="#ffffb3" stroke="#000000" points="6065.6317,-122 5926.3683,-122 5926.3683,-86 6065.6317,-86 6065.6317,-122"/>
<text text-anchor="middle" x="5996" y="-99.8" font-family="Times,serif" font-size="14.00" fill="#000000">SearchBarComponent</text>
</g>
<!-- SearchBarComponent&#45;&gt;AppModule -->
<g id="edge2" class="edge">
<title>SearchBarComponent&#45;&gt;AppModule</title>
<path fill="none" stroke="#000000" d="M5996,-122.1532C5996,-145.7566 5996,-184 5996,-184 5996,-184 3447.8929,-184 3447.8929,-184"/>
<polygon fill="#000000" stroke="#000000" points="3447.8929,-180.5001 3437.8929,-184 3447.8928,-187.5001 3447.8929,-180.5001"/>
</g>
<!-- ToolbarComponent -->
<g id="node3" class="node">
<title>ToolbarComponent</title>
<polygon fill="#ffffb3" stroke="#000000" points="5907.6513,-122 5782.3487,-122 5782.3487,-86 5907.6513,-86 5907.6513,-122"/>
<text text-anchor="middle" x="5845" y="-99.8" font-family="Times,serif" font-size="14.00" fill="#000000">ToolbarComponent</text>
</g>
<!-- ToolbarComponent&#45;&gt;AppModule -->
<g id="edge3" class="edge">
<title>ToolbarComponent&#45;&gt;AppModule</title>
<path fill="none" stroke="#000000" d="M5845,-122.0908C5845,-145.1328 5845,-182 5845,-182 5845,-182 3447.7352,-182 3447.7352,-182"/>
<polygon fill="#000000" stroke="#000000" points="3447.7352,-178.5001 3437.7352,-182 3447.7352,-185.5001 3447.7352,-178.5001"/>
</g>
<!-- MapComponent -->
<g id="node4" class="node">
<title>MapComponent</title>
<polygon fill="#ffffb3" stroke="#000000" points="5764.4916,-122 5657.5084,-122 5657.5084,-86 5764.4916,-86 5764.4916,-122"/>
<text text-anchor="middle" x="5711" y="-99.8" font-family="Times,serif" font-size="14.00" fill="#000000">MapComponent</text>
</g>
<!-- MapComponent&#45;&gt;AppModule -->
<g id="edge4" class="edge">
<title>MapComponent&#45;&gt;AppModule</title>
<path fill="none" stroke="#000000" d="M5711,-122.0109C5711,-144.4852 5711,-180 5711,-180 5711,-180 3447.6591,-180 3447.6591,-180"/>
<polygon fill="#000000" stroke="#000000" points="3447.6592,-176.5001 3437.6591,-180 3447.6591,-183.5001 3447.6592,-176.5001"/>
</g>
<!-- RightSideComponent -->
<g id="node5" class="node">
<title>RightSideComponent</title>
<polygon fill="#ffffb3" stroke="#000000" points="5639.8384,-122 5502.1616,-122 5502.1616,-86 5639.8384,-86 5639.8384,-122"/>
<text text-anchor="middle" x="5571" y="-99.8" font-family="Times,serif" font-size="14.00" fill="#000000">RightSideComponent</text>
</g>
<!-- RightSideComponent&#45;&gt;AppModule -->
<g id="edge5" class="edge">
<title>RightSideComponent&#45;&gt;AppModule</title>
<path fill="none" stroke="#000000" d="M5571,-122.2921C5571,-144.2057 5571,-178 5571,-178 5571,-178 3447.9875,-178 3447.9875,-178"/>
<polygon fill="#000000" stroke="#000000" points="3447.9875,-174.5001 3437.9875,-178 3447.9874,-181.5001 3447.9875,-174.5001"/>
</g>
<!-- LeftSideComponent -->
<g id="node6" class="node">
<title>LeftSideComponent</title>
<polygon fill="#ffffb3" stroke="#000000" points="5484.5394,-122 5355.4606,-122 5355.4606,-86 5484.5394,-86 5484.5394,-122"/>
<text text-anchor="middle" x="5420" y="-99.8" font-family="Times,serif" font-size="14.00" fill="#000000">LeftSideComponent</text>
</g>
<!-- LeftSideComponent&#45;&gt;AppModule -->
<g id="edge6" class="edge">
<title>LeftSideComponent&#45;&gt;AppModule</title>
<path fill="none" stroke="#000000" d="M5441.5898,-122.1686C5441.5898,-143.498 5441.5898,-176 5441.5898,-176 5441.5898,-176 3447.7884,-176 3447.7884,-176"/>
<polygon fill="#000000" stroke="#000000" points="3447.7884,-172.5001 3437.7884,-176 3447.7883,-179.5001 3447.7884,-172.5001"/>
</g>
<!-- LeftSideComponent&#45;&gt;AppModule -->
<g id="edge11" class="edge">
<title>LeftSideComponent&#45;&gt;AppModule</title>
<path fill="none" stroke="#000000" d="M5398.4102,-122.0267C5398.4102,-142.7672 5398.4102,-174 5398.4102,-174 5398.4102,-174 3447.8232,-174 3447.8232,-174"/>
<polygon fill="#000000" stroke="#000000" points="3447.8232,-170.5001 3437.8232,-174 3447.8231,-177.5001 3447.8232,-170.5001"/>
</g>
<!-- NavigationBarComponent -->
<g id="node7" class="node">
<title>NavigationBarComponent</title>
<polygon fill="#ffffb3" stroke="#000000" points="5336.752,-122 5173.248,-122 5173.248,-86 5336.752,-86 5336.752,-122"/>
<text text-anchor="middle" x="5255" y="-99.8" font-family="Times,serif" font-size="14.00" fill="#000000">NavigationBarComponent</text>
</g>
<!-- NavigationBarComponent&#45;&gt;AppModule -->
<g id="edge7" class="edge">
<title>NavigationBarComponent&#45;&gt;AppModule</title>
<path fill="none" stroke="#000000" d="M5255,-122.2228C5255,-142.3652 5255,-172 5255,-172 5255,-172 3447.8764,-172 3447.8764,-172"/>
<polygon fill="#000000" stroke="#000000" points="3447.8764,-168.5001 3437.8764,-172 3447.8764,-175.5001 3447.8764,-168.5001"/>
</g>
<!-- SummaryResultComponent -->
<g id="node8" class="node">
<title>SummaryResultComponent</title>
<polygon fill="#ffffb3" stroke="#000000" points="5154.549,-122 4983.451,-122 4983.451,-86 5154.549,-86 5154.549,-122"/>
<text text-anchor="middle" x="5069" y="-99.8" font-family="Times,serif" font-size="14.00" fill="#000000">SummaryResultComponent</text>
</g>
<!-- SummaryResultComponent&#45;&gt;AppModule -->
<g id="edge8" class="edge">
<title>SummaryResultComponent&#45;&gt;AppModule</title>
<path fill="none" stroke="#000000" d="M5069,-122.0348C5069,-141.5762 5069,-170 5069,-170 5069,-170 3447.7727,-170 3447.7727,-170"/>
<polygon fill="#000000" stroke="#000000" points="3447.7727,-166.5001 3437.7727,-170 3447.7726,-173.5001 3447.7727,-166.5001"/>
</g>
<!-- SummaryResultCellComponent -->
<g id="node9" class="node">
<title>SummaryResultCellComponent</title>
<polygon fill="#ffffb3" stroke="#000000" points="4965.3808,-122 4770.6192,-122 4770.6192,-86 4965.3808,-86 4965.3808,-122"/>
<text text-anchor="middle" x="4868" y="-99.8" font-family="Times,serif" font-size="14.00" fill="#000000">SummaryResultCellComponent</text>
</g>
<!-- SummaryResultCellComponent&#45;&gt;AppModule -->
<g id="edge9" class="edge">
<title>SummaryResultCellComponent&#45;&gt;AppModule</title>
<path fill="none" stroke="#000000" d="M4868,-122.1061C4868,-141.3391 4868,-169 4868,-169 4868,-169 3447.683,-169 3447.683,-169"/>
<polygon fill="#000000" stroke="#000000" points="3447.683,-165.5001 3437.683,-169 3447.6829,-172.5001 3447.683,-165.5001"/>
</g>
<!-- DataInteractionCellComponent -->
<g id="node10" class="node">
<title>DataInteractionCellComponent</title>
<polygon fill="#ffffb3" stroke="#000000" points="4752.7282,-122 4561.2718,-122 4561.2718,-86 4752.7282,-86 4752.7282,-122"/>
<text text-anchor="middle" x="4657" y="-99.8" font-family="Times,serif" font-size="14.00" fill="#000000">DataInteractionCellComponent</text>
</g>
<!-- DataInteractionCellComponent&#45;&gt;AppModule -->
<g id="edge10" class="edge">
<title>DataInteractionCellComponent&#45;&gt;AppModule</title>
<path fill="none" stroke="#000000" d="M4657,-122.2222C4657,-140.8285 4657,-167 4657,-167 4657,-167 3447.9557,-167 3447.9557,-167"/>
<polygon fill="#000000" stroke="#000000" points="3447.9558,-163.5001 3437.9557,-167 3447.9557,-170.5001 3447.9558,-163.5001"/>
</g>
<!-- TopSideComponent -->
<g id="node11" class="node">
<title>TopSideComponent</title>
<polygon fill="#ffffb3" stroke="#000000" points="4543.273,-122 4414.727,-122 4414.727,-86 4543.273,-86 4543.273,-122"/>
<text text-anchor="middle" x="4479" y="-99.8" font-family="Times,serif" font-size="14.00" fill="#000000">TopSideComponent</text>
</g>
<!-- TopSideComponent&#45;&gt;AppModule -->
<g id="edge12" class="edge">
<title>TopSideComponent&#45;&gt;AppModule</title>
<path fill="none" stroke="#000000" d="M4479,-122.302C4479,-140.2699 4479,-165 4479,-165 4479,-165 3447.7913,-165 3447.7913,-165"/>
<polygon fill="#000000" stroke="#000000" points="3447.7913,-161.5001 3437.7913,-165 3447.7913,-168.5001 3447.7913,-161.5001"/>
</g>
<!-- UppercaseFirstLetterPipe -->
<g id="node12" class="node">
<title>UppercaseFirstLetterPipe</title>
<polygon fill="#ffffb3" stroke="#000000" points="4396.5506,-122 4237.4494,-122 4237.4494,-86 4396.5506,-86 4396.5506,-122"/>
<text text-anchor="middle" x="4317" y="-99.8" font-family="Times,serif" font-size="14.00" fill="#000000">UppercaseFirstLetterPipe</text>
</g>
<!-- UppercaseFirstLetterPipe&#45;&gt;AppModule -->
<g id="edge13" class="edge">
<title>UppercaseFirstLetterPipe&#45;&gt;AppModule</title>
<path fill="none" stroke="#000000" d="M4317,-122.0225C4317,-139.3734 4317,-163 4317,-163 4317,-163 3447.6642,-163 3447.6642,-163"/>
<polygon fill="#000000" stroke="#000000" points="3447.6642,-159.5001 3437.6642,-163 3447.6642,-166.5001 3447.6642,-159.5001"/>
</g>
<!-- NumberFormatPipe -->
<g id="node13" class="node">
<title>NumberFormatPipe</title>
<polygon fill="#ffffb3" stroke="#000000" points="4219.6994,-122 4092.3006,-122 4092.3006,-86 4219.6994,-86 4219.6994,-122"/>
<text text-anchor="middle" x="4156" y="-99.8" font-family="Times,serif" font-size="14.00" fill="#000000">NumberFormatPipe</text>
</g>
<!-- NumberFormatPipe&#45;&gt;AppModule -->
<g id="edge14" class="edge">
<title>NumberFormatPipe&#45;&gt;AppModule</title>
<path fill="none" stroke="#000000" d="M4156,-122.0352C4156,-138.7344 4156,-161 4156,-161 4156,-161 3447.6717,-161 3447.6717,-161"/>
<polygon fill="#000000" stroke="#000000" points="3447.6717,-157.5001 3437.6717,-161 3447.6716,-164.5001 3447.6717,-157.5001"/>
</g>
<!-- LayerNamePipe -->
<g id="node14" class="node">
<title>LayerNamePipe</title>
<polygon fill="#ffffb3" stroke="#000000" points="4074.4566,-122 3967.5434,-122 3967.5434,-86 4074.4566,-86 4074.4566,-122"/>
<text text-anchor="middle" x="4021" y="-99.8" font-family="Times,serif" font-size="14.00" fill="#000000">LayerNamePipe</text>
</g>
<!-- LayerNamePipe&#45;&gt;AppModule -->
<g id="edge15" class="edge">
<title>LayerNamePipe&#45;&gt;AppModule</title>
<path fill="none" stroke="#000000" d="M4021,-122.0091C4021,-138.0494 4021,-159 4021,-159 4021,-159 3447.9785,-159 3447.9785,-159"/>
<polygon fill="#000000" stroke="#000000" points="3447.9785,-155.5001 3437.9785,-159 3447.9785,-162.5001 3447.9785,-155.5001"/>
</g>
<!-- BusinessNamePipe -->
<g id="node15" class="node">
<title>BusinessNamePipe</title>
<polygon fill="#ffffb3" stroke="#000000" points="3949.0898,-122 3824.9102,-122 3824.9102,-86 3949.0898,-86 3949.0898,-122"/>
<text text-anchor="middle" x="3887" y="-99.8" font-family="Times,serif" font-size="14.00" fill="#000000">BusinessNamePipe</text>
</g>
<!-- BusinessNamePipe&#45;&gt;AppModule -->
<g id="edge16" class="edge">
<title>BusinessNamePipe&#45;&gt;AppModule</title>
<path fill="none" stroke="#000000" d="M3887,-122.2396C3887,-137.5706 3887,-157 3887,-157 3887,-157 3447.8624,-157 3447.8624,-157"/>
<polygon fill="#000000" stroke="#000000" points="3447.8624,-153.5001 3437.8624,-157 3447.8623,-160.5001 3447.8624,-153.5001"/>
</g>
<!-- FeedbackComponent -->
<g id="node16" class="node">
<title>FeedbackComponent</title>
<polygon fill="#ffffb3" stroke="#000000" points="3806.4734,-122 3671.5266,-122 3671.5266,-86 3806.4734,-86 3806.4734,-122"/>
<text text-anchor="middle" x="3739" y="-99.8" font-family="Times,serif" font-size="14.00" fill="#000000">FeedbackComponent</text>
</g>
<!-- FeedbackComponent&#45;&gt;AppModule -->
<g id="edge17" class="edge">
<title>FeedbackComponent&#45;&gt;AppModule</title>
<path fill="none" stroke="#000000" d="M3739,-122.1243C3739,-136.7832 3739,-155 3739,-155 3739,-155 3447.7156,-155 3447.7156,-155"/>
<polygon fill="#000000" stroke="#000000" points="3447.7157,-151.5001 3437.7156,-155 3447.7156,-158.5001 3447.7157,-151.5001"/>
</g>
<!-- AppComponent  -->
<g id="node19" class="node">
<title>AppComponent </title>
<polygon fill="#80b1d3" stroke="#000000" points="3450.439,-252 3341.561,-252 3341.561,-216 3450.439,-216 3450.439,-252"/>
<text text-anchor="middle" x="3396" y="-229.8" font-family="Times,serif" font-size="14.00" fill="#000000">AppComponent </text>
</g>
<!-- AppModule&#45;&gt;AppComponent  -->
<g id="edge19" class="edge">
<title>AppModule&#45;&gt;AppComponent </title>
<path fill="none" stroke="#000000" stroke-dasharray="1,5" d="M3396,-187.1061C3396,-187.1061 3396,-205.991 3396,-205.991"/>
<polygon fill="#000000" stroke="#000000" points="3392.5001,-205.9909 3396,-215.991 3399.5001,-205.991 3392.5001,-205.9909"/>
</g>
<!-- AppRoutingModule -->
<g id="node18" class="node">
<title>AppRoutingModule</title>
<polygon fill="#8dd3c7" stroke="#000000" points="3648.2744,-122 3645.2744,-126 3624.2744,-126 3621.2744,-122 3519.7256,-122 3519.7256,-86 3648.2744,-86 3648.2744,-122"/>
<text text-anchor="middle" x="3584" y="-99.8" font-family="Times,serif" font-size="14.00" fill="#000000">AppRoutingModule</text>
</g>
<!-- AppRoutingModule&#45;&gt;AppModule -->
<g id="edge18" class="edge">
<title>AppRoutingModule&#45;&gt;AppModule</title>
<path fill="none" stroke="#000000" d="M3584,-122.2458C3584,-136.1772 3584,-153 3584,-153 3584,-153 3447.7233,-153 3447.7233,-153"/>
<polygon fill="#000000" stroke="#000000" points="3447.7233,-149.5001 3437.7233,-153 3447.7233,-156.5001 3447.7233,-149.5001"/>
</g>
<!-- DataInteractionService -->
<g id="node20" class="node">
<title>DataInteractionService</title>
<ellipse fill="#fdb462" stroke="#000000" cx="3396" cy="-104" rx="100.093" ry="18"/>
<text text-anchor="middle" x="3396" y="-99.8" font-family="Times,serif" font-size="14.00" fill="#000000">DataInteractionService</text>
</g>
<!-- DataInteractionService&#45;&gt;AppModule -->
<g id="edge20" class="edge">
<title>DataInteractionService&#45;&gt;AppModule</title>
<path fill="none" stroke="#000000" d="M3396,-122.1061C3396,-122.1061 3396,-140.991 3396,-140.991"/>
<polygon fill="#000000" stroke="#000000" points="3392.5001,-140.9909 3396,-150.991 3399.5001,-140.991 3392.5001,-140.9909"/>
</g>
<!-- PopulationService -->
<g id="node21" class="node">
<title>PopulationService</title>
<ellipse fill="#fdb462" stroke="#000000" cx="3196" cy="-104" rx="81.6808" ry="18"/>
<text text-anchor="middle" x="3196" y="-99.8" font-family="Times,serif" font-size="14.00" fill="#000000">PopulationService</text>
</g>
<!-- PopulationService&#45;&gt;AppModule -->
<g id="edge21" class="edge">
<title>PopulationService&#45;&gt;AppModule</title>
<path fill="none" stroke="#000000" d="M3196,-122.2458C3196,-136.1772 3196,-153 3196,-153 3196,-153 3344.0734,-153 3344.0734,-153"/>
<polygon fill="#000000" stroke="#000000" points="3344.0735,-156.5001 3354.0734,-153 3344.0734,-149.5001 3344.0735,-156.5001"/>
</g>
<!-- GeocodingService -->
<g id="node22" class="node">
<title>GeocodingService</title>
<ellipse fill="#fdb462" stroke="#000000" cx="3014" cy="-104" rx="82.2256" ry="18"/>
<text text-anchor="middle" x="3014" y="-99.8" font-family="Times,serif" font-size="14.00" fill="#000000">GeocodingService</text>
</g>
<!-- GeocodingService&#45;&gt;AppModule -->
<g id="edge22" class="edge">
<title>GeocodingService&#45;&gt;AppModule</title>
<path fill="none" stroke="#000000" d="M3014,-122.1243C3014,-136.7832 3014,-155 3014,-155 3014,-155 3344.0266,-155 3344.0266,-155"/>
<polygon fill="#000000" stroke="#000000" points="3344.0266,-158.5001 3354.0266,-155 3344.0266,-151.5001 3344.0266,-158.5001"/>
</g>
<!-- MapService -->
<g id="node23" class="node">
<title>MapService</title>
<ellipse fill="#fdb462" stroke="#000000" cx="2856" cy="-104" rx="57.8829" ry="18"/>
<text text-anchor="middle" x="2856" y="-99.8" font-family="Times,serif" font-size="14.00" fill="#000000">MapService</text>
</g>
<!-- MapService&#45;&gt;AppModule -->
<g id="edge23" class="edge">
<title>MapService&#45;&gt;AppModule</title>
<path fill="none" stroke="#000000" d="M2856,-122.2396C2856,-137.5706 2856,-157 2856,-157 2856,-157 3344.0764,-157 3344.0764,-157"/>
<polygon fill="#000000" stroke="#000000" points="3344.0765,-160.5001 3354.0764,-157 3344.0764,-153.5001 3344.0765,-160.5001"/>
</g>
<!-- Logger -->
<g id="node24" class="node">
<title>Logger</title>
<ellipse fill="#fdb462" stroke="#000000" cx="2741" cy="-104" rx="38.8459" ry="18"/>
<text text-anchor="middle" x="2741" y="-99.8" font-family="Times,serif" font-size="14.00" fill="#000000">Logger</text>
</g>
<!-- Logger&#45;&gt;AppModule -->
<g id="edge24" class="edge">
<title>Logger&#45;&gt;AppModule</title>
<path fill="none" stroke="#000000" d="M2741,-122.0091C2741,-138.0494 2741,-159 2741,-159 2741,-159 3344.0304,-159 3344.0304,-159"/>
<polygon fill="#000000" stroke="#000000" points="3344.0304,-162.5001 3354.0304,-159 3344.0304,-155.5001 3344.0304,-162.5001"/>
</g>
<!-- LoaderService -->
<g id="node25" class="node">
<title>LoaderService</title>
<ellipse fill="#fdb462" stroke="#000000" cx="2617" cy="-104" rx="67.1734" ry="18"/>
<text text-anchor="middle" x="2617" y="-99.8" font-family="Times,serif" font-size="14.00" fill="#000000">LoaderService</text>
</g>
<!-- LoaderService&#45;&gt;AppModule -->
<g id="edge25" class="edge">
<title>LoaderService&#45;&gt;AppModule</title>
<path fill="none" stroke="#000000" d="M2617,-122.0352C2617,-138.7344 2617,-161 2617,-161 2617,-161 3344.1176,-161 3344.1176,-161"/>
<polygon fill="#000000" stroke="#000000" points="3344.1176,-164.5001 3354.1176,-161 3344.1175,-157.5001 3344.1176,-164.5001"/>
</g>
<!-- ToasterService -->
<g id="node26" class="node">
<title>ToasterService</title>
<ellipse fill="#fdb462" stroke="#000000" cx="2463" cy="-104" rx="68.8946" ry="18"/>
<text text-anchor="middle" x="2463" y="-99.8" font-family="Times,serif" font-size="14.00" fill="#000000">ToasterService</text>
</g>
<!-- ToasterService&#45;&gt;AppModule -->
<g id="edge26" class="edge">
<title>ToasterService&#45;&gt;AppModule</title>
<path fill="none" stroke="#000000" d="M2463,-122.0225C2463,-139.3734 2463,-163 2463,-163 2463,-163 3344.0984,-163 3344.0984,-163"/>
<polygon fill="#000000" stroke="#000000" points="3344.0984,-166.5001 3354.0984,-163 3344.0984,-159.5001 3344.0984,-166.5001"/>
</g>
<!-- GlobalErrorHandler -->
<g id="node27" class="node">
<title>GlobalErrorHandler</title>
<ellipse fill="#fdb462" stroke="#000000" cx="2287" cy="-104" rx="88.5831" ry="18"/>
<text text-anchor="middle" x="2287" y="-99.8" font-family="Times,serif" font-size="14.00" fill="#000000">GlobalErrorHandler</text>
</g>
<!-- GlobalErrorHandler&#45;&gt;AppModule -->
<g id="edge27" class="edge">
<title>GlobalErrorHandler&#45;&gt;AppModule</title>
<path fill="none" stroke="#000000" d="M2287,-122.302C2287,-140.2699 2287,-165 2287,-165 2287,-165 3344.2156,-165 3344.2156,-165"/>
<polygon fill="#000000" stroke="#000000" points="3344.2156,-168.5001 3354.2156,-165 3344.2156,-161.5001 3344.2156,-168.5001"/>
</g>
<!-- Helper -->
<g id="node28" class="node">
<title>Helper</title>
<ellipse fill="#fdb462" stroke="#000000" cx="2143" cy="-104" rx="37.1174" ry="18"/>
<text text-anchor="middle" x="2143" y="-99.8" font-family="Times,serif" font-size="14.00" fill="#000000">Helper</text>
</g>
<!-- Helper&#45;&gt;AppModule -->
<g id="edge28" class="edge">
<title>Helper&#45;&gt;AppModule</title>
<path fill="none" stroke="#000000" d="M2143,-122.2222C2143,-140.8285 2143,-167 2143,-167 2143,-167 3344.3104,-167 3344.3104,-167"/>
<polygon fill="#000000" stroke="#000000" points="3344.3105,-170.5001 3354.3104,-167 3344.3104,-163.5001 3344.3105,-170.5001"/>
</g>
<!-- SidePanelService -->
<g id="node29" class="node">
<title>SidePanelService</title>
<ellipse fill="#fdb462" stroke="#000000" cx="2009" cy="-104" rx="78.726" ry="18"/>
<text text-anchor="middle" x="2009" y="-99.8" font-family="Times,serif" font-size="14.00" fill="#000000">SidePanelService</text>
</g>
<!-- SidePanelService&#45;&gt;AppModule -->
<g id="edge29" class="edge">
<title>SidePanelService&#45;&gt;AppModule</title>
<path fill="none" stroke="#000000" d="M2009,-122.1061C2009,-141.3391 2009,-169 2009,-169 2009,-169 3344.112,-169 3344.112,-169"/>
<polygon fill="#000000" stroke="#000000" points="3344.112,-172.5001 3354.112,-169 3344.1119,-165.5001 3344.112,-172.5001"/>
</g>
<!-- NavigationBarService -->
<g id="node30" class="node">
<title>NavigationBarService</title>
<ellipse fill="#fdb462" stroke="#000000" cx="1816" cy="-104" rx="96.6868" ry="18"/>
<text text-anchor="middle" x="1816" y="-99.8" font-family="Times,serif" font-size="14.00" fill="#000000">NavigationBarService</text>
</g>
<!-- NavigationBarService&#45;&gt;AppModule -->
<g id="edge30" class="edge">
<title>NavigationBarService&#45;&gt;AppModule</title>
<path fill="none" stroke="#000000" d="M1816,-122.0348C1816,-141.5762 1816,-170 1816,-170 1816,-170 3344.1458,-170 3344.1458,-170"/>
<polygon fill="#000000" stroke="#000000" points="3344.1458,-173.5001 3354.1458,-170 3344.1458,-166.5001 3344.1458,-173.5001"/>
</g>
<!-- LayersService -->
<g id="node31" class="node">
<title>LayersService</title>
<ellipse fill="#fdb462" stroke="#000000" cx="1635" cy="-104" rx="66.0281" ry="18"/>
<text text-anchor="middle" x="1635" y="-99.8" font-family="Times,serif" font-size="14.00" fill="#000000">LayersService</text>
</g>
<!-- LayersService&#45;&gt;AppModule -->
<g id="edge31" class="edge">
<title>LayersService&#45;&gt;AppModule</title>
<path fill="none" stroke="#000000" d="M1635,-122.2228C1635,-142.3652 1635,-172 1635,-172 1635,-172 3344.2063,-172 3344.2063,-172"/>
<polygon fill="#000000" stroke="#000000" points="3344.2064,-175.5001 3354.2063,-172 3344.2063,-168.5001 3344.2064,-175.5001"/>
</g>
<!-- SelectionToolService -->
<g id="node32" class="node">
<title>SelectionToolService</title>
<ellipse fill="#fdb462" stroke="#000000" cx="1457" cy="-104" rx="94.3369" ry="18"/>
<text text-anchor="middle" x="1457" y="-99.8" font-family="Times,serif" font-size="14.00" fill="#000000">SelectionToolService</text>
</g>
<!-- SelectionToolService&#45;&gt;AppModule -->
<g id="edge32" class="edge">
<title>SelectionToolService&#45;&gt;AppModule</title>
<path fill="none" stroke="#000000" d="M1457,-122.0267C1457,-142.7672 1457,-174 1457,-174 1457,-174 3344.1522,-174 3344.1522,-174"/>
<polygon fill="#000000" stroke="#000000" points="3344.1523,-177.5001 3354.1522,-174 3344.1522,-170.5001 3344.1523,-177.5001"/>
</g>
<!-- SelectionToolButtonStateService -->
<g id="node33" class="node">
<title>SelectionToolButtonStateService</title>
<ellipse fill="#fdb462" stroke="#000000" cx="1205" cy="-104" rx="139.5411" ry="18"/>
<text text-anchor="middle" x="1205" y="-99.8" font-family="Times,serif" font-size="14.00" fill="#000000">SelectionToolButtonStateService</text>
</g>
<!-- SelectionToolButtonStateService&#45;&gt;AppModule -->
<g id="edge33" class="edge">
<title>SelectionToolButtonStateService&#45;&gt;AppModule</title>
<path fill="none" stroke="#000000" d="M1205,-122.1686C1205,-143.498 1205,-176 1205,-176 1205,-176 3344.1883,-176 3344.1883,-176"/>
<polygon fill="#000000" stroke="#000000" points="3344.1883,-179.5001 3354.1883,-176 3344.1883,-172.5001 3344.1883,-179.5001"/>
</g>
<!-- BusinessInterfaceRenderService -->
<g id="node34" class="node">
<title>BusinessInterfaceRenderService</title>
<ellipse fill="#fdb462" stroke="#000000" cx="911" cy="-104" rx="136.53" ry="18"/>
<text text-anchor="middle" x="911" y="-99.8" font-family="Times,serif" font-size="14.00" fill="#000000">BusinessInterfaceRenderService</text>
</g>
<!-- BusinessInterfaceRenderService&#45;&gt;AppModule -->
<g id="edge34" class="edge">
<title>BusinessInterfaceRenderService&#45;&gt;AppModule</title>
<path fill="none" stroke="#000000" d="M911,-122.2921C911,-144.2057 911,-178 911,-178 911,-178 3344.1696,-178 3344.1696,-178"/>
<polygon fill="#000000" stroke="#000000" points="3344.1697,-181.5001 3354.1696,-178 3344.1696,-174.5001 3344.1697,-181.5001"/>
</g>
<!-- SummaryResultService -->
<g id="node35" class="node">
<title>SummaryResultService</title>
<ellipse fill="#fdb462" stroke="#000000" cx="654" cy="-104" rx="102.443" ry="18"/>
<text text-anchor="middle" x="654" y="-99.8" font-family="Times,serif" font-size="14.00" fill="#000000">SummaryResultService</text>
</g>
<!-- SummaryResultService&#45;&gt;AppModule -->
<g id="edge35" class="edge">
<title>SummaryResultService&#45;&gt;AppModule</title>
<path fill="none" stroke="#000000" d="M654,-122.0109C654,-144.4852 654,-180 654,-180 654,-180 3344.2992,-180 3344.2992,-180"/>
<polygon fill="#000000" stroke="#000000" points="3344.2992,-183.5001 3354.2992,-180 3344.2992,-176.5001 3344.2992,-183.5001"/>
</g>
<!-- MailService -->
<g id="node36" class="node">
<title>MailService</title>
<ellipse fill="#fdb462" stroke="#000000" cx="476" cy="-104" rx="58.4609" ry="18"/>
<text text-anchor="middle" x="476" y="-99.8" font-family="Times,serif" font-size="14.00" fill="#000000">MailService</text>
</g>
<!-- MailService&#45;&gt;AppModule -->
<g id="edge36" class="edge">
<title>MailService&#45;&gt;AppModule</title>
<path fill="none" stroke="#000000" d="M476,-122.0908C476,-145.1328 476,-182 476,-182 476,-182 3344.161,-182 3344.161,-182"/>
<polygon fill="#000000" stroke="#000000" points="3344.161,-185.5001 3354.161,-182 3344.1609,-178.5001 3344.161,-185.5001"/>
</g>
<!-- SelectionScaleService -->
<g id="node37" class="node">
<title>SelectionScaleService</title>
<ellipse fill="#fdb462" stroke="#000000" cx="303" cy="-104" rx="96.681" ry="18"/>
<text text-anchor="middle" x="303" y="-99.8" font-family="Times,serif" font-size="14.00" fill="#000000">SelectionScaleService</text>
</g>
<!-- SelectionScaleService&#45;&gt;AppModule -->
<g id="edge37" class="edge">
<title>SelectionScaleService&#45;&gt;AppModule</title>
<path fill="none" stroke="#000000" d="M303,-122.1532C303,-145.7566 303,-184 303,-184 303,-184 3344.3262,-184 3344.3262,-184"/>
<polygon fill="#000000" stroke="#000000" points="3344.3263,-187.5001 3354.3262,-184 3344.3262,-180.5001 3344.3263,-187.5001"/>
</g>
<!-- InteractionService -->
<g id="node38" class="node">
<title>InteractionService</title>
<ellipse fill="#fdb462" stroke="#000000" cx="106" cy="-104" rx="81.6365" ry="18"/>
<text text-anchor="middle" x="106" y="-99.8" font-family="Times,serif" font-size="14.00" fill="#000000">InteractionService</text>
</g>
<!-- InteractionService&#45;&gt;AppModule -->
<g id="edge38" class="edge">
<title>InteractionService&#45;&gt;AppModule</title>
<path fill="none" stroke="#000000" d="M106,-122.1985C106,-146.3563 106,-186 106,-186 106,-186 3344.103,-186 3344.103,-186"/>
<polygon fill="#000000" stroke="#000000" points="3344.103,-189.5001 3354.103,-186 3344.1029,-182.5001 3344.103,-189.5001"/>
</g>
</g>
</svg>
